<svg width="24" height="20" viewBox="0 0 24 20" fill="none" xmlns="http://www.w3.org/2000/svg">
<path d="M6.6875 5.625C7.20527 5.625 7.625 5.20527 7.625 4.6875C7.625 4.16973 7.20527 3.75 6.6875 3.75C6.16973 3.75 5.75 4.16973 5.75 4.6875C5.75 5.20527 6.16973 5.625 6.6875 5.625Z" fill="#009379"/>
<path d="M12 5.625C12.5178 5.625 12.9375 5.20527 12.9375 4.6875C12.9375 4.16973 12.5178 3.75 12 3.75C11.4822 3.75 11.0625 4.16973 11.0625 4.6875C11.0625 5.20527 11.4822 5.625 12 5.625Z" fill="#009379"/>
<path d="M17.3125 5.625C17.8303 5.625 18.25 5.20527 18.25 4.6875C18.25 4.16973 17.8303 3.75 17.3125 3.75C16.7947 3.75 16.375 4.16973 16.375 4.6875C16.375 5.20527 16.7947 5.625 17.3125 5.625Z" fill="#009379"/>
<path d="M6.6875 10.9375C7.20527 10.9375 7.625 10.5178 7.625 10C7.625 9.48223 7.20527 9.0625 6.6875 9.0625C6.16973 9.0625 5.75 9.48223 5.75 10C5.75 10.5178 6.16973 10.9375 6.6875 10.9375Z" fill="#009379"/>
<path d="M12 10.9375C12.5178 10.9375 12.9375 10.5178 12.9375 10C12.9375 9.48223 12.5178 9.0625 12 9.0625C11.4822 9.0625 11.0625 9.48223 11.0625 10C11.0625 10.5178 11.4822 10.9375 12 10.9375Z" fill="#009379"/>
<path d="M17.3125 10.9375C17.8303 10.9375 18.25 10.5178 18.25 10C18.25 9.48223 17.8303 9.0625 17.3125 9.0625C16.7947 9.0625 16.375 9.48223 16.375 10C16.375 10.5178 16.7947 10.9375 17.3125 10.9375Z" fill="#009379"/>
<path d="M6.6875 16.25C7.20527 16.25 7.625 15.8303 7.625 15.3125C7.625 14.7947 7.20527 14.375 6.6875 14.375C6.16973 14.375 5.75 14.7947 5.75 15.3125C5.75 15.8303 6.16973 16.25 6.6875 16.25Z" fill="#009379"/>
<path d="M12 16.25C12.5178 16.25 12.9375 15.8303 12.9375 15.3125C12.9375 14.7947 12.5178 14.375 12 14.375C11.4822 14.375 11.0625 14.7947 11.0625 15.3125C11.0625 15.8303 11.4822 16.25 12 16.25Z" fill="#009379"/>
<path d="M17.3125 16.25C17.8303 16.25 18.25 15.8303 18.25 15.3125C18.25 14.7947 17.8303 14.375 17.3125 14.375C16.7947 14.375 16.375 14.7947 16.375 15.3125C16.375 15.8303 16.7947 16.25 17.3125 16.25Z" fill="#009379"/>
</svg>
