<svg width="24" height="20" viewBox="0 0 24 20" fill="none" xmlns="http://www.w3.org/2000/svg">
<path d="M12 17.5C16.1421 17.5 19.5 14.1421 19.5 10C19.5 5.85786 16.1421 2.5 12 2.5C7.85786 2.5 4.5 5.85786 4.5 10C4.5 14.1421 7.85786 17.5 12 17.5Z" stroke="#009379" stroke-width="1.66667" stroke-miterlimit="10"/>
<path d="M12 10.9375C12.5178 10.9375 12.9375 10.5178 12.9375 10C12.9375 9.48223 12.5178 9.0625 12 9.0625C11.4822 9.0625 11.0625 9.48223 11.0625 10C11.0625 10.5178 11.4822 10.9375 12 10.9375Z" fill="#009379"/>
<path d="M15.75 10.9375C16.2678 10.9375 16.6875 10.5178 16.6875 10C16.6875 9.48223 16.2678 9.0625 15.75 9.0625C15.2322 9.0625 14.8125 9.48223 14.8125 10C14.8125 10.5178 15.2322 10.9375 15.75 10.9375Z" fill="#009379"/>
<path d="M8.25 10.9375C8.76777 10.9375 9.1875 10.5178 9.1875 10C9.1875 9.48223 8.76777 9.0625 8.25 9.0625C7.73223 9.0625 7.3125 9.48223 7.3125 10C7.3125 10.5178 7.73223 10.9375 8.25 10.9375Z" fill="#009379"/>
</svg>
