<svg width="24" height="20" viewBox="0 0 24 20" fill="none" xmlns="http://www.w3.org/2000/svg">
<path d="M9.22656 9.75C9.8697 11.0781 10.9437 12.1493 12.2734 12.7891C12.3715 12.8355 12.48 12.8556 12.5882 12.8474C12.6965 12.8392 12.8007 12.8029 12.8906 12.7422L14.8437 11.4375C14.93 11.379 15.0298 11.3433 15.1336 11.3337C15.2374 11.3241 15.342 11.341 15.4375 11.3828L19.0937 12.9531C19.2187 13.0051 19.3231 13.0968 19.3909 13.2139C19.4586 13.3311 19.486 13.4673 19.4687 13.6016C19.3529 14.506 18.9114 15.3373 18.2269 15.9398C17.5424 16.5423 16.6619 16.8748 15.75 16.875C12.9321 16.875 10.2296 15.7556 8.23699 13.763C6.24442 11.7704 5.125 9.06792 5.125 6.25C5.12521 5.33812 5.45767 4.45756 6.06018 3.77309C6.66268 3.08861 7.49395 2.64713 8.39844 2.53125C8.53269 2.514 8.66888 2.54137 8.78605 2.60913C8.90322 2.67689 8.99486 2.78128 9.04687 2.90625L10.6172 6.57031C10.658 6.66433 10.6751 6.76695 10.6669 6.86913C10.6588 6.97131 10.6256 7.06991 10.5703 7.15624L9.26562 9.14062C9.20754 9.23037 9.17345 9.33352 9.16661 9.44021C9.15977 9.5469 9.18041 9.65356 9.22656 9.75V9.75Z" stroke="#009379" stroke-width="1.66667" stroke-linecap="round" stroke-linejoin="round"/>
</svg>
