<svg width="24" height="20" viewBox="0 0 24 20" fill="none" xmlns="http://www.w3.org/2000/svg">
<path d="M13.25 17.5H10.75" stroke="#009379" stroke-width="1.66667" stroke-linecap="round" stroke-linejoin="round"/>
<path d="M11.6094 1.54688C10.125 2.73438 5.16408 7.48438 9.50002 15H14.5C18.75 7.48438 13.8594 2.74219 12.3906 1.54688C12.2811 1.45535 12.1428 1.40521 12 1.40521C11.8572 1.40521 11.719 1.45535 11.6094 1.54688Z" stroke="#009379" stroke-width="1.66667" stroke-linecap="round" stroke-linejoin="round"/>
<path d="M7.77343 8.70312L5.32031 11.6406C5.25851 11.7127 5.2149 11.7986 5.19315 11.891C5.1714 11.9835 5.17214 12.0798 5.19531 12.1719L6.15624 16.5234C6.17943 16.6269 6.22855 16.7227 6.29897 16.8019C6.3694 16.8812 6.45881 16.9412 6.55882 16.9763C6.65882 17.0115 6.76612 17.0206 6.87063 17.0029C6.97514 16.9852 7.07343 16.9412 7.15624 16.875L9.49999 15" stroke="#009379" stroke-width="1.66667" stroke-linecap="round" stroke-linejoin="round"/>
<path d="M16.1797 8.64062L18.6797 11.6406C18.7415 11.7127 18.7851 11.7986 18.8068 11.891C18.8286 11.9835 18.8279 12.0798 18.8047 12.1719L17.8437 16.5234C17.8206 16.6269 17.7714 16.7227 17.701 16.8019C17.6306 16.8812 17.5412 16.9412 17.4412 16.9763C17.3412 17.0115 17.2339 17.0206 17.1294 17.0029C17.0248 16.9852 16.9266 16.9412 16.8437 16.875L14.5 15" stroke="#009379" stroke-width="1.66667" stroke-linecap="round" stroke-linejoin="round"/>
<path d="M12 8.4375C12.5178 8.4375 12.9375 8.01777 12.9375 7.5C12.9375 6.98223 12.5178 6.5625 12 6.5625C11.4822 6.5625 11.0625 6.98223 11.0625 7.5C11.0625 8.01777 11.4822 8.4375 12 8.4375Z" fill="#009379"/>
</svg>
