<svg width="24" height="20" viewBox="0 0 24 20" fill="none" xmlns="http://www.w3.org/2000/svg">
<path d="M4.5 3.75H8.25V11.875H4.5C4.33424 11.875 4.17527 11.8092 4.05806 11.6919C3.94085 11.5747 3.875 11.4158 3.875 11.25V4.375C3.875 4.20924 3.94085 4.05027 4.05806 3.93306C4.17527 3.81585 4.33424 3.75 4.5 3.75V3.75Z" stroke="#009379" stroke-width="1.66667" stroke-linecap="round" stroke-linejoin="round"/>
<path d="M8.25 11.875L11.375 18.125C12.038 18.125 12.6739 17.8616 13.1428 17.3928C13.6116 16.9239 13.875 16.288 13.875 15.625V13.75H18.7109C18.8882 13.7504 19.0635 13.7129 19.225 13.64C19.3866 13.5671 19.5306 13.4605 19.6476 13.3273C19.7645 13.1941 19.8516 13.0374 19.9029 12.8677C19.9543 12.6981 19.9687 12.5194 19.9453 12.3438L19.0078 4.84375C18.9699 4.54267 18.8237 4.26567 18.5966 4.06442C18.3695 3.86317 18.0769 3.75141 17.7734 3.75H8.25" stroke="#009379" stroke-width="1.66667" stroke-linecap="round" stroke-linejoin="round"/>
</svg>
