<svg width="24" height="20" viewBox="0 0 24 20" fill="none" xmlns="http://www.w3.org/2000/svg">
<path d="M4.5 8.125H8.25V16.25H4.5C4.33424 16.25 4.17527 16.1842 4.05806 16.0669C3.94085 15.9497 3.875 15.7908 3.875 15.625V8.75C3.875 8.58424 3.94085 8.42527 4.05806 8.30806C4.17527 8.19085 4.33424 8.125 4.5 8.125V8.125Z" stroke="#009379" stroke-width="1.66667" stroke-linecap="round" stroke-linejoin="round"/>
<path d="M8.25 8.125L11.375 1.875C12.038 1.875 12.6739 2.13839 13.1428 2.60723C13.6116 3.07607 13.875 3.71196 13.875 4.375V6.25H18.7109C18.8882 6.24956 19.0635 6.28706 19.225 6.35997C19.3866 6.43288 19.5306 6.53953 19.6476 6.67273C19.7645 6.80593 19.8516 6.96262 19.9029 7.13226C19.9543 7.3019 19.9687 7.48056 19.9453 7.65625L19.0078 15.1562C18.9699 15.4573 18.8237 15.7343 18.5966 15.9356C18.3695 16.1368 18.0769 16.2486 17.7734 16.25H8.25" stroke="#009379" stroke-width="1.66667" stroke-linecap="round" stroke-linejoin="round"/>
</svg>
